<svg width="113" height="61" viewBox="0 0 113 61" fill="none" xmlns="http://www.w3.org/2000/svg">
<path d="M8.41656 15.7919C12.8066 15.7919 16.3655 12.2567 16.3655 7.89594C16.3655 3.53513 12.8066 0 8.41656 0C4.02646 0 0.46759 3.53513 0.46759 7.89594C0.46759 12.2567 4.02646 15.7919 8.41656 15.7919Z" fill="#0E0F19"/>
<path d="M113 32.0482C112.221 47.6853 99.2841 60.3807 83.5421 60.8452C72.1641 61.1548 62.0331 55.2716 56.5779 46.4467C51.2786 55.1167 41.6152 60.8452 30.549 60.8452C13.7159 61 0 47.3756 0 30.6548C0 30.3452 0 30.0355 0 29.7259V21.8299C0.311724 21.9848 0.77931 22.1396 1.2469 22.2944C2.80552 22.9137 4.67586 23.2233 6.54621 23.2233C9.04 23.2233 11.3779 22.6041 13.56 21.6751V30.0355C13.56 30.0355 13.56 30.0355 13.56 30.1904C13.56 30.3452 13.56 30.6548 13.56 30.8096C13.56 40.099 21.1972 47.6853 30.549 47.6853C39.9007 47.6853 47.5379 40.099 47.5379 30.8096C47.5379 21.5203 39.9007 13.7792 30.549 13.7792H21.3531C22.2883 11.7665 22.7559 9.44416 22.7559 7.12183C22.7559 5.10914 22.4441 3.25127 21.8207 1.54822C21.6648 1.08375 21.509 0.619287 21.3531 0.309643H30.8607C41.771 0.464465 51.2786 6.19289 56.5779 14.7081C56.8897 15.3274 59.0717 18.7335 61.5655 25.5457C63.1241 30.0355 64.371 33.132 65.6179 35.2995C66.0855 36.0736 66.709 37.0025 67.1765 37.7766C69.2028 41.1827 76.0607 47.066 83.0745 46.7563C91.9586 46.4467 99.1283 39.7893 99.44 31.1193C99.5959 21.6751 91.9586 13.7792 82.451 13.7792C77.7752 13.7792 73.5669 15.6371 70.4497 18.7335C70.4497 18.7335 67.9559 10.5279 64.2152 6.34771C69.3586 2.63198 75.5931 0.309643 82.451 0.309643C99.7517 0.309643 113.779 14.7081 113 32.0482Z" fill="#0E0F19"/>
</svg>
